<?xml version="1.0" encoding="UTF-8" standalone="no"?>
<svg xmlns="http://www.w3.org/2000/svg" viewBox="0 0 391.07 72.46"><defs><style>.cls-1{fill:#222220;}.cls-2{fill:#6e6e6e;}</style></defs><title>IHRU_texto_horizontal</title><g id="Camada_2" data-name="Camada 2"><g id="Camada_1-2" data-name="Camada 1"><path class="cls-1" d="M4.63,10.17c0-1.54,0-5.11-.49-6.41C3.52,2.11,1.54,2.11,0,2.11V1c2.32,0,4.63.14,6.95.19s4.87-.15,7.28-.19V2.11c-1.54,0-3.52,0-4.15,1.64-.48,1.3-.48,4.87-.48,6.41v13.6c0,1.54,0,5.11.48,6.41.63,1.64,2.6,1.64,4.15,1.64v1.11c-2.27,0-4.63-.14-6.95-.19s-4.87.15-7.28.19V31.82c1.54,0,3.52,0,4.15-1.64.49-1.3.49-4.87.49-6.41Z"/><path class="cls-1" d="M32.22,23.77c0,1.54,0,5.11.48,6.41.63,1.64,2.6,1.64,4.15,1.64v1.11c-2.31,0-4.68-.14-7-.19s-4.87.15-7.24.19V31.82c1.54,0,3.52,0,4.15-1.64.49-1.3.49-4.87.49-6.41V10.17c0-1.54,0-5.11-.49-6.41-.63-1.64-2.6-1.64-4.15-1.64V1c2.27,0,4.58.14,6.9.19s4.87-.15,7.33-.19V2.11c-1.54,0-3.52,0-4.15,1.64-.48,1.3-.48,4.87-.48,6.41v5.59H49.44V10.17c0-1.54,0-5.11-.48-6.41-.63-1.64-2.61-1.64-4.15-1.64V1c2.36,0,4.68.14,7,.19S56.62,1.05,59,1V2.11c-1.54,0-3.52,0-4.15,1.64-.49,1.3-.49,4.87-.49,6.41v13.6c0,1.54,0,5.11.49,6.41.63,1.64,2.6,1.64,4.15,1.64v1.11c-2.32,0-4.68-.14-7-.19s-4.82.15-7.23.19V31.82c1.54,0,3.52,0,4.15-1.64.48-1.3.48-4.87.48-6.41V17.31H32.22Z"/><path class="cls-1" d="M54.17,57.59c0,8.77-3.42,13.31-12.59,13.31-8.63,0-12.83-3-12.83-11.77V47.61c0-1.54,0-5.11-.48-6.41-.63-1.64-2.6-1.64-4.15-1.64V38.45c2.26,0,4.58.14,6.85.19,2.46,0,4.87-.14,7.33-.19v1.11c-1.54,0-3.57-.05-4.15,1.64-.44,1.3-.44,4.87-.44,6.41V59.47c0,6.17,2.41,9.69,9,9.69s10-3.47,10-9.93V48.67c0-1.69,0-5.4-.48-6.9-.68-2-2.6-2.22-4.48-2.22V38.45c1.88,0,3.71.14,5.59.19s3.57-.14,5.4-.19v1.11c-1.54,0-3.23,0-3.91,1.73s-.67,5.45-.67,7.38Z"/><path class="cls-1" d="M18,66.42,7.82,54.69c4.78-.43,8.73-3.09,8.73-8.29,0-6.7-5.55-8-11-8l-2.84.09v1.26l1.59,0c4.34,0,6.75,3,6.75,7.23,0,6.16-3.41,7-8.34,7.12v1.57c.62.27.95.8,1.88,1.87l8,9.93,2.27,2.8c1.2,0,2.41-.14,3.62-.19,1.44,0,2.89.14,4.34.19V69.26C20.31,68.88,19.59,68.2,18,66.42Z"/><path class="cls-2" d="M84.47,2.62h4V26.1h-4Z"/><path class="cls-2" d="M98,7.33a6.28,6.28,0,0,1,1.15-.42,5.55,5.55,0,0,1,1.47-.18A3.89,3.89,0,0,1,103.69,8a6.23,6.23,0,0,1,1.13,4.16V26.1H101.1V11.66a1.74,1.74,0,0,0-.48-1.41,2.09,2.09,0,0,0-1.37-.4,4,4,0,0,0-1.4.24,9.11,9.11,0,0,0-1.3.63V26.1H92.84V7.1h2.44l1.17,2.25Z"/><path class="cls-2" d="M109.57,26.2a7.74,7.74,0,0,1-1.88-.75l.47-2.67q.72.29,1.68.57a7.31,7.31,0,0,0,2.12.29,3,3,0,0,0,2-.54,2.57,2.57,0,0,0,.63-2,4.24,4.24,0,0,0-.13-1.13,1.49,1.49,0,0,0-.49-.76,3.87,3.87,0,0,0-1-.57c-.43-.18-1-.39-1.66-.63a6.54,6.54,0,0,1-1.53-.72,4.14,4.14,0,0,1-1.14-1.08,4.86,4.86,0,0,1-.73-1.57,8.54,8.54,0,0,1-.25-2.22,5.54,5.54,0,0,1,1.49-4.33,5.81,5.81,0,0,1,4-1.34,8.93,8.93,0,0,1,2.51.31,7.72,7.72,0,0,1,1.75.7l-.58,2.83a13.47,13.47,0,0,0-1.46-.47,7.88,7.88,0,0,0-2-.21,2.84,2.84,0,0,0-1.82.47,2.28,2.28,0,0,0-.56,1.8,3.27,3.27,0,0,0,.15,1.06,1.52,1.52,0,0,0,.5.7,3.77,3.77,0,0,0,.95.52c.39.16.87.35,1.45.56a10.26,10.26,0,0,1,1.78.81,4.32,4.32,0,0,1,1.27,1.13,4.8,4.8,0,0,1,.76,1.62,8.69,8.69,0,0,1,.26,2.23,5.85,5.85,0,0,1-1.43,4.24,5.74,5.74,0,0,1-4.32,1.48A10.28,10.28,0,0,1,109.57,26.2Z"/><path class="cls-2" d="M122.39,25.27a6,6,0,0,1-1-3.92V9.82h-1.81V7.1h2l1.82-5h1.68v5h3.28V9.82h-3.28V22.27a1.53,1.53,0,0,0,.34,1.15,1.89,1.89,0,0,0,1.28.33h1.88l.18,2a6,6,0,0,1-1.35.53,7.14,7.14,0,0,1-1.89.24A3.84,3.84,0,0,1,122.39,25.27Z"/><path class="cls-2" d="M131.55,3.93a2,2,0,0,1-.67-1.59,2.05,2.05,0,0,1,.67-1.61,2.28,2.28,0,0,1,1.57-.6,2.33,2.33,0,0,1,1.61.6,2,2,0,0,1,.67,1.61,2,2,0,0,1-.67,1.59,2.37,2.37,0,0,1-1.61.58A2.33,2.33,0,0,1,131.55,3.93Zm-.27,3.16H135v19h-3.72Z"/><path class="cls-2" d="M140.51,25.27a6,6,0,0,1-1-3.92V9.82h-1.8V7.1h2l1.82-5h1.68v5h3.29V9.82h-3.29V22.27a1.53,1.53,0,0,0,.34,1.15,1.88,1.88,0,0,0,1.28.33h1.88l.18,2a5.93,5.93,0,0,1-1.35.53,7.16,7.16,0,0,1-1.89.24A3.85,3.85,0,0,1,140.51,25.27Z"/><path class="cls-2" d="M157.64,7.1h3.72v19h-2.42l-1.19-2.19-1.44,2a7,7,0,0,1-1.13.41,5.49,5.49,0,0,1-1.39.16,4.15,4.15,0,0,1-3.23-1.3A6.14,6.14,0,0,1,149.38,21V7.1h3.71V21.46a2.11,2.11,0,0,0,.51,1.62,2,2,0,0,0,1.44.47,3.61,3.61,0,0,0,1.41-.25,8.09,8.09,0,0,0,1.19-.65Z"/><path class="cls-2" d="M166.76,25.27a6,6,0,0,1-1-3.92V9.82h-1.8V7.1h2l1.83-5h1.67v5h3.28V9.82h-3.28V22.27a1.53,1.53,0,0,0,.34,1.15,1.88,1.88,0,0,0,1.28.33h1.88l.18,2a6.08,6.08,0,0,1-1.35.53,7.21,7.21,0,0,1-1.9.24A3.82,3.82,0,0,1,166.76,25.27Z"/><path class="cls-2" d="M176.26,24.1q-1.72-2.39-1.73-7.48t1.73-7.5a6,6,0,0,1,9.55,0q1.73,2.38,1.73,7.4t-1.71,7.57a6,6,0,0,1-9.57,0Zm5.95-.77a2,2,0,0,0,.85-.89,5.15,5.15,0,0,0,.51-1.73,20.71,20.71,0,0,0,.16-2.8V15.35a20.73,20.73,0,0,0-.16-2.82,5.24,5.24,0,0,0-.49-1.69,1.8,1.8,0,0,0-.83-.85,2.82,2.82,0,0,0-1.19-.23,2.89,2.89,0,0,0-1.22.23,1.79,1.79,0,0,0-.83.85,5.19,5.19,0,0,0-.49,1.68,19.53,19.53,0,0,0-.16,2.73v2.57a21.33,21.33,0,0,0,.16,2.85,5.43,5.43,0,0,0,.51,1.77,2,2,0,0,0,.84.9,2.69,2.69,0,0,0,1.19.25A2.56,2.56,0,0,0,182.21,23.33Z"/><path class="cls-2" d="M205.22.53h3.72V26.1H206.5l-1-2-1.49,2c-.22.09-.48.19-.8.29a3.78,3.78,0,0,1-1.08.14,4.75,4.75,0,0,1-4.36-2.35q-1.43-2.33-1.43-7.57a20.88,20.88,0,0,1,.45-4.71,8.94,8.94,0,0,1,1.25-3,4.7,4.7,0,0,1,1.81-1.62A5,5,0,0,1,202,6.73a4,4,0,0,1,1.9.42,5.32,5.32,0,0,1,1.35,1Zm0,10.22a6.73,6.73,0,0,0-1-.61,3.31,3.31,0,0,0-1.43-.29,3.22,3.22,0,0,0-1.16.2,1.69,1.69,0,0,0-.83.78,5.13,5.13,0,0,0-.5,1.57,14.87,14.87,0,0,0-.18,2.58v3.57a15.61,15.61,0,0,0,.18,2.59,5.47,5.47,0,0,0,.53,1.67,2.1,2.1,0,0,0,.85.9,2.52,2.52,0,0,0,1.2.27,2.57,2.57,0,0,0,1.25-.28,7.72,7.72,0,0,0,1.14-.79Z"/><path class="cls-2" d="M219.94,12.63a3.82,3.82,0,0,0-.42-2c-.28-.44-.87-.65-1.79-.65a8.32,8.32,0,0,0-2.32.33c-.77.22-1.52.46-2.23.72l-.61-2.87a15,15,0,0,1,2.4-1,10.66,10.66,0,0,1,3.16-.45,7.54,7.54,0,0,1,2.46.37,3.68,3.68,0,0,1,1.73,1.19,5.34,5.34,0,0,1,1,2.18,14.23,14.23,0,0,1,.33,3.34v9.12a1.11,1.11,0,0,0,.22.81.94.94,0,0,0,.65.2h.69l.1,1.8a3.56,3.56,0,0,1-.88.48,3.38,3.38,0,0,1-1.32.24,4.49,4.49,0,0,1-.89-.08,5.28,5.28,0,0,1-.79-.19l-1.13-1.94L219.14,26a5.79,5.79,0,0,1-1,.32,6.2,6.2,0,0,1-1.36.14,6,6,0,0,1-1.88-.29,4,4,0,0,1-1.52-.93,4.32,4.32,0,0,1-1-1.68,7.5,7.5,0,0,1-.38-2.56,8.79,8.79,0,0,1,.34-2.64,4.26,4.26,0,0,1,1.07-1.79,5,5,0,0,1,1.85-1.1,13.81,13.81,0,0,1,2.68-.61l2.06-.26Zm0,4.29-1.84.25a3.31,3.31,0,0,0-2,.81,3.19,3.19,0,0,0-.6,2.22v1.22a2.61,2.61,0,0,0,.58,1.95,2.32,2.32,0,0,0,1.63.54,3.06,3.06,0,0,0,1.39-.27,3.1,3.1,0,0,0,.89-.67Z"/><path class="cls-2" d="M238.52,15.69V26.1h-4V2.62h4v9.85h6.07V2.62h4V26.1h-4V15.69Z"/><path class="cls-2" d="M259.86,12.63a3.89,3.89,0,0,0-.41-2Q259,10,257.66,10a8.27,8.27,0,0,0-2.31.33c-.77.22-1.52.46-2.24.72l-.61-2.87a15.08,15.08,0,0,1,2.4-1,10.68,10.68,0,0,1,3.16-.45,7.46,7.46,0,0,1,2.46.37,3.68,3.68,0,0,1,1.73,1.19,5.48,5.48,0,0,1,1,2.18,14.41,14.41,0,0,1,.33,3.34v9.12a1.1,1.1,0,0,0,.22.81.93.93,0,0,0,.65.2h.69l.11,1.8a3.76,3.76,0,0,1-.88.48,3.41,3.41,0,0,1-1.33.24,4.51,4.51,0,0,1-.89-.08,5,5,0,0,1-.78-.19l-1.13-1.94L259.07,26a6,6,0,0,1-1,.32,6.25,6.25,0,0,1-1.36.14,6,6,0,0,1-1.88-.29,3.89,3.89,0,0,1-1.52-.93,4.32,4.32,0,0,1-1-1.68,7.5,7.5,0,0,1-.38-2.56,8.66,8.66,0,0,1,.35-2.64,4.26,4.26,0,0,1,1.07-1.79,5,5,0,0,1,1.85-1.1,13.58,13.58,0,0,1,2.68-.61l2.06-.26Zm0,4.29-1.84.25a3.33,3.33,0,0,0-2,.81,3.23,3.23,0,0,0-.6,2.22v1.22a2.62,2.62,0,0,0,.58,1.95,2.33,2.33,0,0,0,1.62.54,2.8,2.8,0,0,0,2.28-.94Z"/><path class="cls-2" d="M269.63,26.16h-1.86V.53h3.72V8.62A5,5,0,0,1,273,7.26a4.17,4.17,0,0,1,2.12-.53,4.5,4.5,0,0,1,2.25.56A4.45,4.45,0,0,1,279,9a10.48,10.48,0,0,1,1,3.09,24.91,24.91,0,0,1,.36,4.57,24.24,24.24,0,0,1-.36,4.53,8.76,8.76,0,0,1-1.1,3A4.62,4.62,0,0,1,277.14,26a5.47,5.47,0,0,1-2.49.54,5.82,5.82,0,0,1-1.48-.18,5.88,5.88,0,0,1-1-.35l-1.45-2Zm1.86-3.05a4.31,4.31,0,0,0,1.1.63,3.55,3.55,0,0,0,1.31.23,2.58,2.58,0,0,0,1.2-.27,2.07,2.07,0,0,0,.86-.9,5.15,5.15,0,0,0,.5-1.67,17.52,17.52,0,0,0,.16-2.59V15.12a17.57,17.57,0,0,0-.16-2.62,5.09,5.09,0,0,0-.48-1.62,1.78,1.78,0,0,0-.81-.81A2.72,2.72,0,0,0,274,9.85a3,3,0,0,0-1.48.36,5.52,5.52,0,0,0-1.07.75Z"/><path class="cls-2" d="M283.88,3.93a2,2,0,0,1-.66-1.59,2,2,0,0,1,.66-1.61,2.29,2.29,0,0,1,1.57-.6,2.33,2.33,0,0,1,1.61.6,2,2,0,0,1,.67,1.61,2,2,0,0,1-.67,1.59,2.37,2.37,0,0,1-1.61.58A2.33,2.33,0,0,1,283.88,3.93Zm-.27,3.16h3.71v19h-3.71Z"/><path class="cls-2" d="M292.84,25.27a6,6,0,0,1-1-3.92V9.82H290V7.1h2l1.82-5h1.67v5h3.29V9.82h-3.29V22.27a1.53,1.53,0,0,0,.34,1.15,1.88,1.88,0,0,0,1.28.33H299l.18,2a6,6,0,0,1-1.35.53,7.12,7.12,0,0,1-1.89.24A3.85,3.85,0,0,1,292.84,25.27Z"/><path class="cls-2" d="M309.06,12.63a3.82,3.82,0,0,0-.42-2,2,2,0,0,0-1.78-.65,8.27,8.27,0,0,0-2.31.33c-.77.22-1.51.46-2.24.72l-.61-2.87a14.72,14.72,0,0,1,2.4-1,10.71,10.71,0,0,1,3.16-.45,7.59,7.59,0,0,1,2.47.37,3.65,3.65,0,0,1,1.72,1.19,5.39,5.39,0,0,1,1,2.18,14.43,14.43,0,0,1,.33,3.34v9.12a1.11,1.11,0,0,0,.22.81.94.94,0,0,0,.65.2h.69l.11,1.8a3.73,3.73,0,0,1-.89.48,3.38,3.38,0,0,1-1.32.24,4.47,4.47,0,0,1-.89-.08,5.49,5.49,0,0,1-.79-.19l-1.13-1.94L308.27,26a5.75,5.75,0,0,1-1,.32,6.29,6.29,0,0,1-1.36.14,6,6,0,0,1-1.88-.29,4,4,0,0,1-1.53-.93,4.31,4.31,0,0,1-1-1.68,7.41,7.41,0,0,1-.38-2.56,8.89,8.89,0,0,1,.34-2.64,4.29,4.29,0,0,1,1.06-1.79,5.13,5.13,0,0,1,1.85-1.1A13.73,13.73,0,0,1,307,14.9l2.06-.26Zm0,4.29-1.84.25a3.33,3.33,0,0,0-2,.81,3.21,3.21,0,0,0-.6,2.22v1.22a2.61,2.61,0,0,0,.58,1.95,2.29,2.29,0,0,0,1.62.54,2.79,2.79,0,0,0,2.28-.94Z"/><path class="cls-2" d="M317.41,23.48a14.57,14.57,0,0,1-1.29-6.85q0-5.2,1.71-7.55a5.84,5.84,0,0,1,5-2.35,7.71,7.71,0,0,1,2.29.33,7,7,0,0,1,1.64.73l-.58,2.86q-.83-.32-1.55-.54A6,6,0,0,0,323,9.89a3.91,3.91,0,0,0-1.34.21,2,2,0,0,0-1,.82,4.72,4.72,0,0,0-.57,1.66,15.15,15.15,0,0,0-.2,2.72v2.46a19,19,0,0,0,.18,2.85,4.91,4.91,0,0,0,.57,1.75,2.1,2.1,0,0,0,.93.88,3.2,3.2,0,0,0,1.32.25,5.16,5.16,0,0,0,1.76-.31c.56-.2,1.11-.44,1.66-.7l.55,2.74a8,8,0,0,1-1.59.83,7.23,7.23,0,0,1-2.35.47l-.9,2.17,1.19-.47a2.62,2.62,0,0,1,1.48.83,2.83,2.83,0,0,1,.65,2,2.75,2.75,0,0,1-1,2.35,4,4,0,0,1-2.39.72,5,5,0,0,1-1.59-.23,5.38,5.38,0,0,1-1.07-.49l.28-1.55c.33.14.66.28,1,.4a3,3,0,0,0,1,.18,1.67,1.67,0,0,0,1-.25,1,1,0,0,0,.33-.86v-.43a1.47,1.47,0,0,0-.18-.85.8.8,0,0,0-.68-.24,1.14,1.14,0,0,0-.59.12,5.93,5.93,0,0,0-.49.38L320,29.55l1.15-3.18A5.35,5.35,0,0,1,317.41,23.48Z"/><path class="cls-2" d="M336.64,12.63a3.79,3.79,0,0,0-.42-2c-.27-.44-.87-.65-1.79-.65a8.27,8.27,0,0,0-2.31.33q-1.15.32-2.23.72l-.61-2.87a14.78,14.78,0,0,1,2.4-1,10.7,10.7,0,0,1,3.16-.45,7.52,7.52,0,0,1,2.46.37A3.71,3.71,0,0,1,339,8.29a5.43,5.43,0,0,1,1,2.18,14.62,14.62,0,0,1,.33,3.34v9.12a1.13,1.13,0,0,0,.22.81,1,1,0,0,0,.65.2h.69l.11,1.8a3.69,3.69,0,0,1-.89.48,3.36,3.36,0,0,1-1.32.24,4.46,4.46,0,0,1-.89-.08,5.38,5.38,0,0,1-.79-.19L337,24.27,335.85,26a5.84,5.84,0,0,1-1,.32,6.19,6.19,0,0,1-1.36.14,6,6,0,0,1-1.88-.29,3.93,3.93,0,0,1-1.52-.93,4.32,4.32,0,0,1-1-1.68,7.59,7.59,0,0,1-.38-2.56,8.79,8.79,0,0,1,.34-2.64,4.16,4.16,0,0,1,1.07-1.79,5,5,0,0,1,1.84-1.1,13.69,13.69,0,0,1,2.68-.61l2.06-.26Zm-2-8.46L334,3.44a7,7,0,0,0-.47-.54.6.6,0,0,0-.44-.18c-.48,0-.72.49-.72,1.48v.72h-2a6.39,6.39,0,0,1,.86-3.74A2.56,2.56,0,0,1,333.37,0a2.34,2.34,0,0,1,1.9,1l.54.68a2.87,2.87,0,0,0,.49.56.67.67,0,0,0,.45.17c.48,0,.72-.48.72-1.44V.26h2A6.42,6.42,0,0,1,338.6,4a2.5,2.5,0,0,1-2.09,1.17A2.43,2.43,0,0,1,334.6,4.16Zm2,12.75-1.84.25a3.34,3.34,0,0,0-2,.81,3.23,3.23,0,0,0-.6,2.22v1.22a2.62,2.62,0,0,0,.58,1.95,2.29,2.29,0,0,0,1.62.54,3.08,3.08,0,0,0,1.4-.27,3,3,0,0,0,.88-.67Z"/><path class="cls-2" d="M345.42,24.1q-1.72-2.39-1.73-7.48t1.73-7.5a6,6,0,0,1,9.55,0q1.73,2.38,1.73,7.4c0,3.44-.58,6-1.72,7.57a5.51,5.51,0,0,1-4.77,2.42A5.57,5.57,0,0,1,345.42,24.1Zm5.94-.77a2,2,0,0,0,.85-.89,5.39,5.39,0,0,0,.51-1.73,19.57,19.57,0,0,0,.16-2.8V15.35a19.6,19.6,0,0,0-.16-2.82,5.72,5.72,0,0,0-.49-1.69,1.85,1.85,0,0,0-.83-.85,2.86,2.86,0,0,0-1.19-.23A2.93,2.93,0,0,0,349,10a1.81,1.81,0,0,0-.82.85,5.27,5.27,0,0,0-.49,1.68,19.53,19.53,0,0,0-.16,2.73v2.57a21.33,21.33,0,0,0,.16,2.85,5.62,5.62,0,0,0,.5,1.77,2.05,2.05,0,0,0,.85.9,2.67,2.67,0,0,0,1.19.25A2.56,2.56,0,0,0,351.37,23.33Z"/><path class="cls-2" d="M86.29,56.25A16.52,16.52,0,0,0,86.48,59a4.45,4.45,0,0,0,.59,1.7,2.14,2.14,0,0,0,1.05.86,4.35,4.35,0,0,0,1.53.24,7.37,7.37,0,0,0,2.2-.33c.7-.22,1.36-.44,2-.68l.5,2.77a8.77,8.77,0,0,1-2,.88,9.49,9.49,0,0,1-2.91.42,6,6,0,0,1-5.21-2.37q-1.71-2.36-1.71-7.52t1.74-7.54A5.56,5.56,0,0,1,89,45.05a4.92,4.92,0,0,1,4.55,2.24,12.26,12.26,0,0,1,1.37,6.36V56.1H86.29Zm5-2.7V52.39a7.74,7.74,0,0,0-.56-3.51,1.91,1.91,0,0,0-1.78-1,2.66,2.66,0,0,0-1.19.25A1.92,1.92,0,0,0,87,49a6,6,0,0,0-.5,1.74,17.19,17.19,0,0,0-.19,2.77Z"/><path class="cls-2" d="M112.48,38.85h3.72V64.43h-2.44l-1-2-1.48,2c-.22.09-.49.19-.8.29a3.72,3.72,0,0,1-1.09.14A4.77,4.77,0,0,1,105,62.48q-1.43-2.35-1.42-7.58A20.49,20.49,0,0,1,104,50.2a8.85,8.85,0,0,1,1.25-3,4.75,4.75,0,0,1,1.81-1.62,4.91,4.91,0,0,1,2.17-.49,3.94,3.94,0,0,1,1.9.42,5.23,5.23,0,0,1,1.36,1Zm0,10.22a6.5,6.5,0,0,0-1-.61,3.29,3.29,0,0,0-1.43-.29,3.06,3.06,0,0,0-1.16.2,1.62,1.62,0,0,0-.83.77,5.06,5.06,0,0,0-.51,1.57,15.2,15.2,0,0,0-.17,2.58v3.57a15.87,15.87,0,0,0,.17,2.59,5.58,5.58,0,0,0,.53,1.68,2.15,2.15,0,0,0,.85.9,2.52,2.52,0,0,0,1.2.27,2.55,2.55,0,0,0,1.25-.29,7.89,7.89,0,0,0,1.14-.79Z"/><path class="cls-2" d="M127.19,50.95a3.85,3.85,0,0,0-.42-2c-.27-.43-.87-.65-1.79-.65a8.79,8.79,0,0,0-2.31.32c-.77.22-1.51.46-2.24.73l-.61-2.87a15.45,15.45,0,0,1,2.4-1,10.53,10.53,0,0,1,3.16-.45,7.71,7.71,0,0,1,2.46.36,3.74,3.74,0,0,1,1.73,1.2,5.54,5.54,0,0,1,1,2.18,14.44,14.44,0,0,1,.33,3.34v9.13a1.11,1.11,0,0,0,.22.81.93.93,0,0,0,.65.21h.69l.11,1.8a4.08,4.08,0,0,1-.89.48,3.38,3.38,0,0,1-1.32.24,4.9,4.9,0,0,1-.89-.07,6.74,6.74,0,0,1-.78-.19l-1.13-1.94-1.16,1.77a6.2,6.2,0,0,1-1,.32,6.37,6.37,0,0,1-3.24-.14,4,4,0,0,1-1.52-.92,4.45,4.45,0,0,1-1-1.68,7.57,7.57,0,0,1-.38-2.57,8.83,8.83,0,0,1,.34-2.64,4.2,4.2,0,0,1,1.06-1.79,5,5,0,0,1,1.85-1.1,14.12,14.12,0,0,1,2.68-.62l2.06-.25Zm0,4.29-1.84.25a3.32,3.32,0,0,0-2,.81,3.22,3.22,0,0,0-.6,2.22v1.23a2.62,2.62,0,0,0,.58,1.95,2.26,2.26,0,0,0,1.62.55,3,3,0,0,0,1.4-.27,3.25,3.25,0,0,0,.88-.67Z"/><path class="cls-2" d="M152.83,56.46l3.11,8h-4.15l-3.54-9.21h-2.46v9.21h-4V40.94h6.47a7.5,7.5,0,0,1,5.36,1.75c1.23,1.17,1.85,3,1.85,5.58a8.23,8.23,0,0,1-1,4.29,5.11,5.11,0,0,1-3.67,2.24Zm-4.73-4a3.24,3.24,0,0,0,2.46-.78,4.11,4.11,0,0,0,.73-2.8V47.55a3.63,3.63,0,0,0-.76-2.69,3.62,3.62,0,0,0-2.5-.7h-2.28v8.34Z"/><path class="cls-2" d="M161.49,56.25a16.82,16.82,0,0,0,.19,2.73,4.51,4.51,0,0,0,.59,1.7,2.16,2.16,0,0,0,1.05.86,4.39,4.39,0,0,0,1.53.24,7.39,7.39,0,0,0,2.2-.33c.7-.22,1.36-.44,2-.68l.51,2.77a8.85,8.85,0,0,1-2,.88,9.51,9.51,0,0,1-2.91.42,6,6,0,0,1-5.21-2.37q-1.71-2.36-1.72-7.52t1.73-7.54a5.57,5.57,0,0,1,4.73-2.34,4.93,4.93,0,0,1,4.55,2.24,12.25,12.25,0,0,1,1.37,6.36V56.1h-8.6Zm5-2.7V52.39a7.74,7.74,0,0,0-.56-3.51,1.91,1.91,0,0,0-1.78-1,2.68,2.68,0,0,0-1.19.25,2,2,0,0,0-.83.89,6.19,6.19,0,0,0-.5,1.74,17.5,17.5,0,0,0-.19,2.77Z"/><path class="cls-2" d="M180.15,50.95a3.88,3.88,0,0,0-.42-2c-.28-.43-.87-.65-1.79-.65a8.76,8.76,0,0,0-2.31.32c-.77.22-1.52.46-2.24.73l-.61-2.87a15.56,15.56,0,0,1,2.4-1,10.48,10.48,0,0,1,3.15-.45,7.71,7.71,0,0,1,2.47.36,3.73,3.73,0,0,1,1.73,1.2,5.49,5.49,0,0,1,1,2.18,14.58,14.58,0,0,1,.33,3.34v9.13a1.1,1.1,0,0,0,.21.81.93.93,0,0,0,.65.21h.69l.11,1.8a3.84,3.84,0,0,1-.89.48,3.35,3.35,0,0,1-1.32.24,4.93,4.93,0,0,1-.9-.07,6.53,6.53,0,0,1-.78-.19l-1.13-1.94-1.17,1.77a6.15,6.15,0,0,1-2.38.47,6.06,6.06,0,0,1-1.88-.29,4,4,0,0,1-1.52-.92,4.37,4.37,0,0,1-1-1.68,7.53,7.53,0,0,1-.38-2.57,8.6,8.6,0,0,1,.35-2.64,4.18,4.18,0,0,1,1.06-1.79,5,5,0,0,1,1.85-1.1,14,14,0,0,1,2.67-.62l2.07-.25Zm0,4.29-1.85.25a3.33,3.33,0,0,0-2,.81,3.25,3.25,0,0,0-.6,2.22v1.23a2.64,2.64,0,0,0,.58,1.95,2.29,2.29,0,0,0,1.63.55,3,3,0,0,0,1.38-.27,3.16,3.16,0,0,0,.89-.67Z"/><path class="cls-2" d="M189.92,64.5h-1.86V38.85h3.72v8.09a4.91,4.91,0,0,1,1.51-1.36,4.17,4.17,0,0,1,2.12-.53,4.48,4.48,0,0,1,2.25.56,4.36,4.36,0,0,1,1.65,1.75,10.28,10.28,0,0,1,1,3.08A25.24,25.24,0,0,1,200.7,55a24.6,24.6,0,0,1-.36,4.53,8.94,8.94,0,0,1-1.1,3,4.57,4.57,0,0,1-1.82,1.71,6,6,0,0,1-4,.36,5.68,5.68,0,0,1-1-.35l-1.44-2Zm1.86-3.06a4.19,4.19,0,0,0,1.09.63,3.49,3.49,0,0,0,1.31.23,2.58,2.58,0,0,0,1.21-.27,2.16,2.16,0,0,0,.86-.9,5.39,5.39,0,0,0,.5-1.68,17.55,17.55,0,0,0,.16-2.59V53.44a17.53,17.53,0,0,0-.16-2.61,5.12,5.12,0,0,0-.49-1.62,1.71,1.71,0,0,0-.81-.81,2.77,2.77,0,0,0-1.14-.22,3,3,0,0,0-1.47.36,5.36,5.36,0,0,0-1.07.75Z"/><path class="cls-2" d="M204.17,42.25a2,2,0,0,1-.67-1.59,2,2,0,0,1,.67-1.61,2.28,2.28,0,0,1,1.56-.6,2.33,2.33,0,0,1,1.61.6,2.07,2.07,0,0,1,.67,1.61,2,2,0,0,1-.67,1.59,2.38,2.38,0,0,1-1.61.58A2.32,2.32,0,0,1,204.17,42.25Zm-.27,3.17h3.71v19H203.9Z"/><path class="cls-2" d="M211.77,38.85h3.72V64.43h-3.72Z"/><path class="cls-2" d="M219.95,42.25a2,2,0,0,1-.67-1.59,2,2,0,0,1,.67-1.61,2.27,2.27,0,0,1,1.57-.6,2.33,2.33,0,0,1,1.61.6,2.06,2.06,0,0,1,.66,1.61,2,2,0,0,1-.66,1.59,2.38,2.38,0,0,1-1.61.58A2.31,2.31,0,0,1,219.95,42.25Zm-.27,3.17h3.72v19h-3.72Z"/><path class="cls-2" d="M228.92,63.6a6,6,0,0,1-1-3.93V48.14h-1.81V45.42h2l1.82-5h1.68v5h3.28v2.72h-3.28V60.6a1.54,1.54,0,0,0,.34,1.15,1.86,1.86,0,0,0,1.28.32h1.88l.18,2a5.83,5.83,0,0,1-1.36.53,7.09,7.09,0,0,1-1.89.24A3.84,3.84,0,0,1,228.92,63.6Z"/><path class="cls-2" d="M245.13,50.95a3.88,3.88,0,0,0-.42-2c-.28-.43-.87-.65-1.79-.65a8.78,8.78,0,0,0-2.31.32c-.78.22-1.51.46-2.24.73l-.61-2.87a15.43,15.43,0,0,1,2.4-1,10.53,10.53,0,0,1,3.16-.45,7.7,7.7,0,0,1,2.46.36,3.77,3.77,0,0,1,1.73,1.2,5.64,5.64,0,0,1,1,2.18,14.59,14.59,0,0,1,.33,3.34v9.13a1.13,1.13,0,0,0,.21.81,1,1,0,0,0,.66.21h.68l.11,1.8a4,4,0,0,1-.89.48,3.36,3.36,0,0,1-1.32.24,5,5,0,0,1-.9-.07,7.23,7.23,0,0,1-.78-.19l-1.13-1.94-1.16,1.77a6.31,6.31,0,0,1-1,.32,6.35,6.35,0,0,1-3.24-.14,4,4,0,0,1-1.52-.92,4.45,4.45,0,0,1-1-1.68,7.71,7.71,0,0,1-.38-2.57,9.19,9.19,0,0,1,.34-2.64,4.3,4.3,0,0,1,1.07-1.79,5.06,5.06,0,0,1,1.85-1.1,14.19,14.19,0,0,1,2.68-.62l2.07-.25Zm0,4.29-1.84.25a3.3,3.3,0,0,0-2,.81,3.21,3.21,0,0,0-.6,2.22v1.23a2.64,2.64,0,0,0,.58,1.95,2.27,2.27,0,0,0,1.62.55,3,3,0,0,0,1.39-.27,3.22,3.22,0,0,0,.89-.67Z"/><path class="cls-2" d="M253.47,61.81A14.69,14.69,0,0,1,252.18,55q0-5.21,1.71-7.55a5.84,5.84,0,0,1,5-2.35,7.59,7.59,0,0,1,2.28.32,6.79,6.79,0,0,1,1.64.73L262.28,49c-.56-.21-1.07-.4-1.55-.54a5.84,5.84,0,0,0-1.66-.21,3.78,3.78,0,0,0-1.33.21,1.89,1.89,0,0,0-1,.81,4.55,4.55,0,0,0-.58,1.66,15.19,15.19,0,0,0-.2,2.73v2.45a18,18,0,0,0,.18,2.85,4.91,4.91,0,0,0,.56,1.75,2.1,2.1,0,0,0,.94.88,3.22,3.22,0,0,0,1.32.25,5.18,5.18,0,0,0,1.77-.3c.56-.2,1.11-.44,1.66-.71l.54,2.74a8,8,0,0,1-1.59.83,7.22,7.22,0,0,1-2.34.47L258.12,67l1.19-.47a2.61,2.61,0,0,1,1.48.83,2.83,2.83,0,0,1,.66,2,2.73,2.73,0,0,1-1,2.35,3.93,3.93,0,0,1-2.39.72,4.86,4.86,0,0,1-1.59-.24,5.31,5.31,0,0,1-1.08-.48l.29-1.55c.34.15.67.28,1,.4a2.92,2.92,0,0,0,1,.18,1.71,1.71,0,0,0,1-.25,1,1,0,0,0,.33-.87v-.43a1.44,1.44,0,0,0-.18-.85.81.81,0,0,0-.68-.23,1.11,1.11,0,0,0-.59.13,3.94,3.94,0,0,0-.48.38l-1.08-.75,1.15-3.18A5.36,5.36,0,0,1,253.47,61.81Z"/><path class="cls-2" d="M272.71,50.95a3.88,3.88,0,0,0-.42-2c-.28-.43-.87-.65-1.79-.65a8.82,8.82,0,0,0-2.31.32c-.77.22-1.51.46-2.23.73l-.61-2.87a15.37,15.37,0,0,1,2.4-1,10.52,10.52,0,0,1,3.16-.45,7.77,7.77,0,0,1,2.47.36,3.81,3.81,0,0,1,1.73,1.2,5.64,5.64,0,0,1,1,2.18,14.4,14.4,0,0,1,.33,3.34v9.13a1.1,1.1,0,0,0,.22.81.93.93,0,0,0,.65.21H278l.11,1.8a4.06,4.06,0,0,1-.89.48,3.38,3.38,0,0,1-1.32.24,4.85,4.85,0,0,1-.89-.07,6.94,6.94,0,0,1-.79-.19l-1.13-1.94-1.16,1.77a6.21,6.21,0,0,1-1,.32,6.14,6.14,0,0,1-1.36.14,6,6,0,0,1-1.88-.29,4,4,0,0,1-1.52-.92,4.45,4.45,0,0,1-1-1.68,7.62,7.62,0,0,1-.38-2.57,8.82,8.82,0,0,1,.35-2.64,4.25,4.25,0,0,1,1.06-1.79,5,5,0,0,1,1.84-1.1,14.14,14.14,0,0,1,2.68-.62l2.06-.25Zm-2-8.47-.58-.72a7,7,0,0,0-.47-.54.59.59,0,0,0-.44-.18c-.48,0-.72.49-.72,1.48v.72h-2a6.33,6.33,0,0,1,.86-3.74,2.57,2.57,0,0,1,2.12-1.18,2.34,2.34,0,0,1,1.9,1l.54.69a2.91,2.91,0,0,0,.49.55.66.66,0,0,0,.45.17c.48,0,.72-.48.72-1.44v-.72h2a6.49,6.49,0,0,1-.85,3.74,2.51,2.51,0,0,1-2.09,1.17A2.42,2.42,0,0,1,270.67,42.48Zm2,12.75-1.84.25a3.32,3.32,0,0,0-2,.81,3.21,3.21,0,0,0-.6,2.22v1.23a2.61,2.61,0,0,0,.58,1.95,2.27,2.27,0,0,0,1.62.55,3,3,0,0,0,1.39-.27,3.28,3.28,0,0,0,.89-.67Z"/><path class="cls-2" d="M281.49,62.43q-1.73-2.4-1.73-7.49t1.73-7.51a6,6,0,0,1,9.55,0q1.73,2.38,1.73,7.4,0,5.16-1.72,7.58a5.51,5.51,0,0,1-4.77,2.42A5.57,5.57,0,0,1,281.49,62.43Zm5.94-.77a2,2,0,0,0,.85-.89,5.53,5.53,0,0,0,.51-1.73,20.06,20.06,0,0,0,.16-2.8V53.67a20,20,0,0,0-.16-2.82,5.73,5.73,0,0,0-.49-1.7,1.86,1.86,0,0,0-.83-.85,2.82,2.82,0,0,0-1.19-.23,2.91,2.91,0,0,0-1.23.23,1.8,1.8,0,0,0-.83.85,5.43,5.43,0,0,0-.49,1.68,18.9,18.9,0,0,0-.16,2.73v2.56a20.73,20.73,0,0,0,.16,2.85,5.61,5.61,0,0,0,.51,1.77,2,2,0,0,0,.84.9,2.66,2.66,0,0,0,1.19.25A2.55,2.55,0,0,0,287.43,61.66Z"/><path class="cls-2" d="M312.34,40.94h4V64.43h-2.68l-1-2.25-1.3,2a9.55,9.55,0,0,1-1.14.41A7.5,7.5,0,0,1,306,64.4a4.62,4.62,0,0,1-1.9-1.43,7.2,7.2,0,0,1-1.23-2.6,15.74,15.74,0,0,1-.44-4V40.94h4v16.8a5.29,5.29,0,0,0,.66,3.11,2.57,2.57,0,0,0,2.16.83,5.49,5.49,0,0,0,1.79-.24,6.12,6.12,0,0,0,1.28-.63Z"/><path class="cls-2" d="M325.74,45.62a6.78,6.78,0,0,1,1-.39,4.2,4.2,0,0,1,1.12-.14,3.83,3.83,0,0,1,1.17.14,2.71,2.71,0,0,1,.71.32l-.58,3.39a6.4,6.4,0,0,0-.85-.19,5.58,5.58,0,0,0-1.1-.09,4.91,4.91,0,0,0-1.55.23,6.07,6.07,0,0,0-1.41.67V64.43h-3.72v-19h2.38l1.2,2.52Z"/><path class="cls-2" d="M334,64.5h-1.86V38.85h3.72v8.09a4.88,4.88,0,0,1,1.51-1.36,4.16,4.16,0,0,1,2.12-.53,4.51,4.51,0,0,1,2.25.56,4.37,4.37,0,0,1,1.65,1.75,10.09,10.09,0,0,1,1,3.08,24.56,24.56,0,0,1,.37,4.57,23.94,23.94,0,0,1-.37,4.53,8.73,8.73,0,0,1-1.09,3,4.57,4.57,0,0,1-1.82,1.71,5.45,5.45,0,0,1-2.49.55,5.4,5.4,0,0,1-1.48-.18,5.78,5.78,0,0,1-1-.35l-1.44-2Zm1.86-3.06a4.27,4.27,0,0,0,1.09.63,3.5,3.5,0,0,0,1.31.23,2.56,2.56,0,0,0,1.2-.27,2.13,2.13,0,0,0,.86-.9,5.3,5.3,0,0,0,.5-1.68,17.57,17.57,0,0,0,.16-2.59V53.44a17.55,17.55,0,0,0-.16-2.61,5.21,5.21,0,0,0-.48-1.62,1.77,1.77,0,0,0-.81-.81,2.81,2.81,0,0,0-1.14-.22,3,3,0,0,0-1.48.36,5.56,5.56,0,0,0-1.07.75Z"/><path class="cls-2" d="M354.95,50.95a3.91,3.91,0,0,0-.42-2,2,2,0,0,0-1.79-.65,8.7,8.7,0,0,0-2.31.32c-.78.22-1.53.46-2.24.73l-.61-2.87a15.62,15.62,0,0,1,2.4-1,10.51,10.51,0,0,1,3.16-.45,7.71,7.71,0,0,1,2.46.36,3.7,3.7,0,0,1,1.73,1.2,5.59,5.59,0,0,1,1,2.18,14.57,14.57,0,0,1,.33,3.34v9.13a1.1,1.1,0,0,0,.21.81.93.93,0,0,0,.65.21h.69l.11,1.8a4,4,0,0,1-.89.48,3.37,3.37,0,0,1-1.32.24,4.9,4.9,0,0,1-.89-.07,6.76,6.76,0,0,1-.79-.19l-1.12-1.94-1.16,1.77a6.31,6.31,0,0,1-1,.32,6.39,6.39,0,0,1-3.25-.14,4.11,4.11,0,0,1-1.52-.92,4.37,4.37,0,0,1-1-1.68,7.53,7.53,0,0,1-.38-2.57,8.71,8.71,0,0,1,.35-2.64,4.25,4.25,0,0,1,1.06-1.79,5,5,0,0,1,1.84-1.1,14.17,14.17,0,0,1,2.68-.62l2.07-.25Zm0,4.29-1.85.25a3.33,3.33,0,0,0-2,.81,3.25,3.25,0,0,0-.59,2.22v1.23A2.62,2.62,0,0,0,351,61.7a2.28,2.28,0,0,0,1.63.55,3,3,0,0,0,1.39-.27,3.26,3.26,0,0,0,.89-.67Z"/><path class="cls-2" d="M368,45.65a6.15,6.15,0,0,1,1.15-.42,5.5,5.5,0,0,1,1.47-.18,3.88,3.88,0,0,1,3.07,1.28,6.25,6.25,0,0,1,1.13,4.17V64.43h-3.72V50a1.73,1.73,0,0,0-.48-1.4,2.09,2.09,0,0,0-1.37-.4,4,4,0,0,0-1.4.23,9.51,9.51,0,0,0-1.3.63V64.43h-3.72v-19h2.45l1.17,2.25Z"/><path class="cls-2" d="M385.7,50.95a3.85,3.85,0,0,0-.42-2c-.28-.43-.87-.65-1.78-.65a8.77,8.77,0,0,0-2.31.32c-.78.22-1.51.46-2.24.73l-.61-2.87a15.15,15.15,0,0,1,2.4-1,10.52,10.52,0,0,1,3.16-.45,7.73,7.73,0,0,1,2.46.36,3.74,3.74,0,0,1,1.73,1.2,5.54,5.54,0,0,1,1,2.18,14.4,14.4,0,0,1,.33,3.34v9.13a1.11,1.11,0,0,0,.21.81,1,1,0,0,0,.66.21H391l.1,1.8a3.87,3.87,0,0,1-.89.48,3.34,3.34,0,0,1-1.32.24,4.92,4.92,0,0,1-.89-.07,7.05,7.05,0,0,1-.78-.19l-1.13-1.94-1.16,1.77a6.42,6.42,0,0,1-1,.32,6.36,6.36,0,0,1-3.24-.14,4,4,0,0,1-1.52-.92,4.36,4.36,0,0,1-1-1.68,7.53,7.53,0,0,1-.38-2.57,8.82,8.82,0,0,1,.35-2.64,4.25,4.25,0,0,1,1.06-1.79,5.06,5.06,0,0,1,1.85-1.1,14.12,14.12,0,0,1,2.68-.62L385.7,53Zm0,4.29-1.84.25a3.33,3.33,0,0,0-2,.81,3.21,3.21,0,0,0-.59,2.22v1.23a2.61,2.61,0,0,0,.58,1.95,2.25,2.25,0,0,0,1.62.55,3,3,0,0,0,1.39-.27,3.22,3.22,0,0,0,.89-.67Z"/></g></g></svg>