<?xml version="1.0" encoding="UTF-8"?>
<svg xmlns="http://www.w3.org/2000/svg" xmlns:xlink="http://www.w3.org/1999/xlink" width="24px" height="24px" viewBox="0 0 24 24" version="1.1">
<g id="surface1">
<path style=" stroke:none;fill-rule:nonzero;fill:rgb(0%,0%,0%);fill-opacity:1;" d="M 19.296875 1.921875 L 4.703125 1.921875 C 4.492188 1.921875 4.320312 2.09375 4.320312 2.304688 L 4.320312 16.894531 C 4.320312 17.109375 4.492188 17.28125 4.703125 17.28125 L 16.800781 17.28125 C 17.011719 17.28125 17.183594 17.109375 17.183594 16.894531 L 17.183594 10.175781 L 19.296875 10.175781 C 19.507812 10.175781 19.679688 10.003906 19.679688 9.792969 L 19.679688 2.304688 C 19.679688 2.09375 19.507812 1.921875 19.296875 1.921875 Z M 5.089844 12.289062 L 7.390625 12.289062 L 7.390625 14.976562 C 7.390625 15.1875 7.5625 15.359375 7.777344 15.359375 L 11.230469 15.359375 C 11.445312 15.359375 11.617188 15.1875 11.617188 14.976562 L 11.617188 9.984375 L 12.769531 9.984375 L 12.769531 16.511719 L 5.089844 16.511719 Z M 16.800781 9.40625 C 16.589844 9.40625 16.417969 9.582031 16.417969 9.792969 L 16.417969 16.511719 L 13.535156 16.511719 L 13.535156 9.601562 C 13.535156 9.386719 13.363281 9.214844 13.152344 9.214844 L 11.230469 9.214844 C 11.019531 9.214844 10.847656 9.386719 10.847656 9.601562 L 10.847656 14.59375 L 8.160156 14.59375 L 8.160156 11.902344 C 8.160156 11.691406 7.988281 11.519531 7.777344 11.519531 L 5.089844 11.519531 L 5.089844 6.71875 L 6.238281 6.71875 C 6.453125 6.71875 6.625 6.546875 6.625 6.335938 C 6.625 6.125 6.453125 5.953125 6.238281 5.953125 L 5.089844 5.953125 L 5.089844 2.6875 L 12.574219 2.6875 L 12.574219 5.953125 L 8.542969 5.953125 C 8.332031 5.953125 8.160156 6.125 8.160156 6.335938 C 8.160156 6.546875 8.332031 6.71875 8.542969 6.71875 L 15.457031 6.71875 C 15.667969 6.71875 15.839844 6.546875 15.839844 6.335938 C 15.839844 6.125 15.667969 5.953125 15.457031 5.953125 L 13.34375 5.953125 L 13.34375 2.6875 L 18.910156 2.6875 L 18.910156 5.953125 L 17.761719 5.953125 C 17.546875 5.953125 17.375 6.125 17.375 6.335938 C 17.375 6.546875 17.546875 6.71875 17.761719 6.71875 L 18.910156 6.71875 L 18.910156 9.40625 Z M 16.800781 9.40625 "/>
</g>
</svg>
